<svg width="16" height="16" viewBox="0 0 16 16" fill="none" xmlns="http://www.w3.org/2000/svg">
<path d="M6.83346 5.95829C6.83346 6.44153 6.44172 6.83328 5.95847 6.83328C5.47522 6.83328 5.08348 6.44153 5.08348 5.95829C5.08348 5.47504 5.47522 5.08329 5.95847 5.08329C6.44172 5.08329 6.83346 5.47504 6.83346 5.95829Z" fill="#EC068D"/>
<path fill-rule="evenodd" clip-rule="evenodd" d="M3.91178 13.9999C2.85548 13.9973 2 13.1402 2 12.0833V3.91665C2 2.85812 2.85812 2 3.91665 2H12.0833C13.1418 2 13.9999 2.85812 13.9999 3.91665V9.73885C14 9.74625 14 9.75366 13.9999 9.76106V12.0833C13.9999 13.1418 13.1418 13.9999 12.0833 13.9999L3.91178 13.9999ZM3.91665 3.49999C3.68654 3.49999 3.49999 3.68654 3.49999 3.91665V12.0833C3.49999 12.2254 3.57118 12.351 3.67986 12.4262L9.80303 6.30298C10.0959 6.01009 10.5708 6.01009 10.8637 6.30298L12.4999 7.93923V3.91665C12.4999 3.68654 12.3134 3.49999 12.0833 3.49999H3.91665ZM12.4999 12.0833V10.0605L10.3334 7.89396L5.72739 12.4999H12.0833C12.3134 12.4999 12.4999 12.3134 12.4999 12.0833Z" fill="#EC068D"/>
</svg>
