<svg width="10" height="12" viewBox="0 0 10 12" fill="none" xmlns="http://www.w3.org/2000/svg">
<path d="M2.23965 12.0002V9.82417H0.847656V8.78417H2.23965V7.36017H0.847656V6.14417H2.23965V0.576172H5.24765C6.64498 0.576172 7.67965 0.858838 8.35165 1.42417C9.03432 1.9895 9.37566 2.81084 9.37566 3.88817C9.37566 4.97617 9.00765 5.8295 8.27165 6.44817C7.53565 7.05617 6.45298 7.36017 5.02365 7.36017H3.67966V8.78417H6.31966V9.82417H3.67966V12.0002H2.23965ZM4.81566 6.14417C5.78633 6.14417 6.53832 5.98417 7.07166 5.66417C7.61566 5.34417 7.88765 4.76817 7.88765 3.93617C7.88765 3.21084 7.66365 2.67217 7.21565 2.32017C6.76765 1.96817 6.06899 1.79217 5.11966 1.79217H3.67966V6.14417H4.81566Z" fill="#888888"/>
</svg>
