<svg width="26" height="29" viewBox="0 0 26 29" fill="none" xmlns="http://www.w3.org/2000/svg">
  <path d="M15.1406 23.6289H8.59766V29H4.86719V23.6289H0.824219V20.543H4.86719V17.8672H0.824219V14.8008H4.86719V0.5625H15.3555C18.4023 0.5625 20.8177 1.33724 22.6016 2.88672C24.3854 4.4362 25.2773 6.53255 25.2773 9.17578C25.2773 11.9492 24.418 14.0911 22.6992 15.6016C20.9935 17.099 18.5651 17.8542 15.4141 17.8672H8.59766V20.543H15.1406V23.6289ZM8.59766 14.8008H15.3555C17.3737 14.8008 18.9102 14.3255 19.9648 13.375C21.0195 12.4245 21.5469 11.0378 21.5469 9.21484C21.5469 7.5612 21 6.22656 19.9062 5.21094C18.8125 4.18229 17.3346 3.66146 15.4727 3.64844H8.59766V14.8008Z" fill="black"/>
</svg>
