<svg width="12" height="15" viewBox="0 0 12 15" fill="none" xmlns="http://www.w3.org/2000/svg">
<path d="M1.81972 15V12.86H0.219727V10.92H1.81972V9.35997H0.219727V6.87997H1.81972V0.719971H6.37971C8.21972 0.719971 9.55972 1.0933 10.3997 1.83997C11.2531 2.58664 11.6797 3.6133 11.6797 4.91997C11.6797 5.6933 11.5064 6.41997 11.1597 7.09997C10.8131 7.77997 10.2331 8.32664 9.41972 8.73997C8.61972 9.1533 7.52639 9.35997 6.13972 9.35997H4.83972V10.92H7.91972V12.86H4.83972V15H1.81972ZM5.83972 6.87997C6.69306 6.87997 7.36639 6.73331 7.85973 6.43997C8.36639 6.14664 8.61972 5.67331 8.61972 5.01997C8.61972 3.80664 7.81973 3.19997 6.21973 3.19997H4.83972V6.87997H5.83972Z" fill="black"/>
</svg>
